<?xml version="1.0" encoding="UTF-8"?> <svg xmlns="http://www.w3.org/2000/svg" width="41" height="41" viewBox="0 0 41 41" fill="none"> <path fill-rule="evenodd" clip-rule="evenodd" d="M18.5165 2.78197C19.5418 1.52971 21.4567 1.52971 22.482 2.78195L24.1763 4.85151C24.4087 5.13523 24.7961 5.23905 25.1392 5.10949L27.6413 4.16439C29.1553 3.59252 30.8137 4.55002 31.0754 6.14713L31.5082 8.78662C31.5674 9.14845 31.851 9.43208 32.2128 9.49138L34.8524 9.924C36.4495 10.1857 37.407 11.8442 36.8351 13.3582L35.89 15.8604C35.7604 16.2034 35.8642 16.5908 36.148 16.8231L38.2175 18.5175C39.4698 19.5427 39.4698 21.4577 38.2175 22.4829L36.148 24.1774C35.8642 24.4096 35.7604 24.797 35.89 25.1401L36.8351 27.6423C37.407 29.1563 36.4495 30.8146 34.8524 31.0765L32.2128 31.5091C31.851 31.5683 31.5674 31.8519 31.5082 32.2139L31.0754 34.8533C30.8137 36.4504 29.1553 37.4079 27.6413 36.8362L25.1392 35.8909C24.7961 35.7614 24.4087 35.8653 24.1763 36.1489L22.482 38.2185C21.4568 39.4708 19.5418 39.4708 18.5165 38.2185L16.8221 36.1489C16.5898 35.8653 16.2024 35.7614 15.8594 35.8909L13.3572 36.8362C11.8432 37.4079 10.1848 36.4504 9.92301 34.8533L9.49041 32.2139C9.43109 31.8519 9.14748 31.5683 8.78564 31.5091L6.14614 31.0765C4.54905 30.8146 3.59155 29.1563 4.16341 27.6423L5.1085 25.1401C5.23806 24.797 5.13426 24.4096 4.85054 24.1774L2.78098 22.4829C1.52874 21.4577 1.52873 19.5427 2.78098 18.5175L4.85054 16.8231C5.13424 16.5908 5.23806 16.2034 5.1085 15.8604L4.16341 13.3582C3.59155 11.8442 4.54905 10.1857 6.14616 9.924L8.78564 9.49138C9.14748 9.43208 9.43109 9.14845 9.49041 8.78662L9.92301 6.14713C10.1848 4.55002 11.8432 3.59254 13.3572 4.16439L15.8594 5.10949C16.2024 5.23905 16.5898 5.13523 16.8221 4.85151L18.5165 2.78197ZM21.1601 3.86416C20.8184 3.44675 20.18 3.44675 19.8384 3.86416L18.1439 5.93372C17.447 6.78485 16.2848 7.0963 15.2558 6.70762L12.7536 5.76251C12.2489 5.5719 11.6961 5.89107 11.6089 6.42343L11.1762 9.06293C10.9983 10.1484 10.1475 10.9993 9.06194 11.1772L6.42246 11.6098C5.8901 11.6971 5.57093 12.2499 5.76154 12.7546L6.70664 15.2567C7.09532 16.2858 6.78388 17.4481 5.93275 18.1449L3.86319 19.8393C3.44578 20.1811 3.44578 20.8193 3.86319 21.1612L5.93275 22.8555C6.78388 23.5523 7.09532 24.7147 6.70664 25.7438L5.76154 28.246C5.57093 28.7506 5.8901 29.3034 6.42246 29.3906L9.06194 29.8233C10.1475 30.0011 10.9983 30.852 11.1762 31.9375L11.6089 34.5771C11.6961 35.1094 12.2489 35.4285 12.7536 35.238L15.2558 34.2928C16.2848 33.9041 17.447 34.2156 18.1439 35.0667L19.8384 37.1363C20.18 37.5537 20.8184 37.5537 21.1601 37.1363L22.8546 35.0667C23.5514 34.2156 24.7138 33.9041 25.7427 34.2928L28.2449 35.238C28.7495 35.4285 29.3024 35.1094 29.3897 34.5771L29.8222 31.9375C30.0002 30.852 30.8511 30.0011 31.9366 29.8233L34.576 29.3906C35.1085 29.3034 35.4276 28.7506 35.2369 28.246L34.2919 25.7438C33.9032 24.7147 34.2147 23.5523 35.0658 22.8555L37.1352 21.1612C37.5528 20.8193 37.5528 20.1811 37.1352 19.8393L35.0658 18.1449C34.2147 17.4481 33.9032 16.2858 34.2919 15.2567L35.2369 12.7546C35.4276 12.2499 35.1085 11.6971 34.576 11.6098L31.9366 11.1772C30.851 10.9993 30.0002 10.1484 29.8222 9.06293L29.3897 6.42343C29.3024 5.89107 28.7495 5.5719 28.2449 5.76251L25.7427 6.70762C24.7138 7.0963 23.5514 6.78485 22.8546 5.93372L21.1601 3.86416Z" fill="#CE9B66"></path> <path fill-rule="evenodd" clip-rule="evenodd" d="M30.4997 15.125L18.5413 27.0834C18.3811 27.2434 18.1638 27.3335 17.9373 27.3335C17.7107 27.3335 17.4936 27.2434 17.3334 27.0834L10.5 20.25L11.708 19.0421L17.9373 25.2713L29.2917 13.917L30.4997 15.125Z" fill="#CE9B66"></path> </svg> 